<svg version="1.2" xmlns="http://www.w3.org/2000/svg" viewBox="0 0 2000 2000" width="2000" height="2000">
	<style>
		.s0 { fill: #00ffe2 } 
		.s1 { fill: #0094ff } 
		.s2 { fill: #aeef20 } 
	</style>
	<g id="Background">
		<path id="Path 0" class="s0" d="m57.11 1161.25c-0.47 1.24-1.59 7.31-2.48 13.5-0.9 6.19-2.11 20.14-2.7 31-0.78 14.31-0.76 24.57 0.05 37.25 0.61 9.63 1.8 22.45 2.64 28.5 0.84 6.05 2.63 16.4 3.97 23 1.34 6.6 4.04 17.63 6 24.5 1.96 6.88 5.82 18.58 8.59 26 2.77 7.42 8.05 19.8 11.73 27.5 3.68 7.7 9.33 18.5 12.54 24 3.22 5.5 9.36 15.17 13.63 21.5 4.28 6.33 11.73 16.45 16.56 22.5 4.82 6.05 16.22 18.46 25.31 27.57 9.1 9.12 21.5 20.53 27.55 25.35 6.05 4.83 17.53 13.12 25.51 18.43 7.97 5.31 21.02 13.1 29 17.32 7.97 4.22 19.44 9.78 25.49 12.36 6.05 2.59 17.52 6.86 25.5 9.51 7.98 2.64 19 5.93 24.5 7.3 5.5 1.38 14.5 3.42 20 4.54 5.5 1.12 15.85 2.82 23 3.76 10.98 1.46 23.69 1.77 81.75 2.04l68.75 0.32v-173c-92.63-0.01-121.31-0.45-126.5-1.05-4.95-0.57-12.37-1.72-16.5-2.56-4.12-0.83-12.9-3.32-19.5-5.52-6.6-2.2-16.05-5.95-21-8.35-4.95-2.39-13.73-7.49-19.5-11.32-5.77-3.84-14.32-10.36-19-14.49-4.68-4.13-11.65-11.21-15.5-15.73-3.85-4.51-9.38-11.65-12.3-15.85-2.91-4.19-7.93-12.8-11.14-19.13-3.22-6.33-7.46-16.22-9.43-22-1.97-5.78-4.47-14.78-5.56-20-1.09-5.22-2.5-14.67-3.14-21-0.66-6.5-0.89-16.5-0.55-23 0.34-6.33 1.55-16.67 2.69-23 1.13-6.33 3.6-16.22 5.48-22 1.88-5.78 3.43-10.84 3.44-11.25 0-0.41-40.05-0.75-89.01-0.75h-89.02zm1714.55 25.5c-0.24 0.41-1.21 5.7-2.15 11.75-0.95 6.05-3.03 16.4-4.63 23-1.6 6.6-4.76 17.63-7.02 24.5-2.26 6.87-6.33 17.67-9.04 24-2.7 6.33-7.43 16-10.49 21.5-3.07 5.5-8.2 13.83-11.41 18.5-3.2 4.67-8.71 12.1-12.25 16.5-3.53 4.4-10.19 11.61-14.79 16.02-4.61 4.42-11.98 10.77-16.38 14.12-4.4 3.34-11.37 8.14-15.5 10.66-4.12 2.51-12.22 6.83-18 9.59-5.77 2.77-15.22 6.58-21 8.48-5.77 1.89-16.35 4.58-23.5 5.96-7.15 1.39-17.95 3.01-24 3.6-6.05 0.59-27.98 1.08-48.75 1.07h-37.75v173c64.72-0.02 88.9-0.48 95.5-1.03 6.6-0.56 17.18-1.69 23.5-2.52 6.33-0.83 18.48-2.9 27-4.59 8.53-1.69 22.25-5.09 30.5-7.55 8.25-2.46 20.4-6.52 27-9.02 6.6-2.5 17.85-7.32 25-10.72 7.15-3.39 17.28-8.57 22.5-11.51 5.23-2.93 15.13-9.02 22-13.53 6.88-4.51 17.67-12.21 24-17.11 6.32-4.91 19.53-16.8 29.37-26.42 9.83-9.63 22-22.67 27.04-29 5.05-6.33 11.47-14.65 14.27-18.5 2.8-3.85 8.01-11.5 11.59-17 3.57-5.5 9.34-14.95 12.81-21 3.47-6.05 9.56-17.75 13.54-26 3.99-8.25 9.7-21.3 12.7-29 3.01-7.7 7.49-20.3 9.97-28 2.48-7.7 6.35-21.42 8.6-30.5 2.25-9.08 5.2-22.58 6.55-30 1.35-7.42 3.38-20.47 4.52-29 1.13-8.53 2.06-16.74 2.05-18.25l-0.01-2.75c-134 0-173.1 0.34-173.34 0.75z"/>
		<path id="Path 1" class="s1" d="m863 362.56c-8.52 0.8-22.48 2.36-31 3.47-8.52 1.11-21.58 3.17-29 4.57-7.42 1.4-20.25 4.11-28.5 6.01-8.25 1.91-21.75 5.44-30 7.86-8.25 2.41-21.98 6.82-30.5 9.79-8.52 2.97-22.48 8.28-31 11.8-8.52 3.51-26.08 11.66-39 18.11-12.92 6.44-30.02 15.62-38 20.39-7.98 4.77-20.58 12.76-28 17.75-7.42 4.99-16.88 11.54-21 14.57-4.13 3.02-12.67 9.61-19 14.64-6.33 5.03-15.77 12.91-21 17.51-5.23 4.6-14.68 13.17-21 19.06-6.32 5.88-17.41 17.15-24.64 25.05-7.22 7.9-17.09 19.09-21.91 24.86-4.83 5.77-13.5 16.8-19.28 24.5-5.78 7.7-15.56 21.65-21.74 31-6.18 9.35-14.72 23.08-18.98 30.5-4.26 7.42-12.53 23.17-18.38 35-5.85 11.83-13.88 29.6-17.83 39.5-3.96 9.9-9.25 24.08-11.76 31.5-2.52 7.42-6.75 21.15-9.42 30.5-2.67 9.35-6.46 24.42-8.43 33.5-1.97 9.08-4.45 21.45-5.51 27.5-1.07 6.05-2.2 14.49-2.53 18.75l-0.59 7.75c-6.59 1.64-12.32 3.26-17 4.65-4.68 1.38-12.1 3.79-16.5 5.33-4.4 1.55-10.25 3.71-13 4.8-2.75 1.09-10.18 4.34-16.5 7.22-6.32 2.89-17.13 8.42-24 12.3-6.88 3.88-17 10.06-22.5 13.73-5.5 3.68-14.56 10.24-20.13 14.58-5.57 4.34-15.18 12.39-21.35 17.89-6.18 5.5-14.68 13.83-18.9 18.5-4.22 4.67-10.17 11.42-13.22 15-3.06 3.58-8.27 10.1-11.59 14.5-3.31 4.4-9.42 13.17-13.58 19.5-4.15 6.33-10.72 17.35-14.59 24.5-3.87 7.15-9.7 19.3-12.96 27-3.25 7.7-7.82 19.62-10.14 26.5-2.32 6.87-5.97 19.7-8.12 28.5-2.14 8.8-3.9 16.22-3.91 16.5 0 0.28 40.38 0.35 89.74 0.16l89.75-0.33c10.07-20.41 15.69-30.12 19-34.76 3.3-4.63 10.54-13.18 16.1-19 5.55-5.81 14.55-13.98 20-18.14 5.44-4.16 12.6-9.19 15.9-11.18 3.3-2 10.27-5.62 15.5-8.07 5.23-2.44 14.56-6.07 20.75-8.06 6.19-1.99 16.31-4.49 22.5-5.55 6.19-1.06 17.32-2.22 24.75-2.57 7.43-0.35 17.1-1.27 21.5-2.04 4.4-0.76 11.15-2.65 15-4.19 3.85-1.54 10.38-4.9 14.5-7.47 4.13-2.57 10.2-7.29 13.5-10.5 3.3-3.2 8.1-8.75 10.67-12.31 2.57-3.57 6.28-9.87 8.24-13.99 1.95-4.13 4.48-11.1 5.61-15.5 1.65-6.44 2.13-12.09 2.47-29 0.23-11.55 1.14-27.75 2.02-36 0.87-8.25 2.7-21.52 4.05-29.5 1.36-7.98 4.02-20.8 5.91-28.5 1.9-7.7 5.54-20.52 8.09-28.5 2.55-7.98 7.11-20.8 10.13-28.5 3.03-7.7 9.02-21.2 13.33-30 4.31-8.8 12.18-23.2 17.48-32 5.3-8.8 13.99-22.08 19.3-29.5 5.31-7.42 14.14-18.9 19.61-25.5 5.48-6.6 17.19-19.24 26.03-28.08 8.83-8.85 21.23-20.36 27.56-25.58 6.33-5.22 15.1-12.19 19.5-15.5 4.4-3.3 12.73-9.15 18.5-13.01 5.77-3.85 15.56-10 21.75-13.66 6.19-3.67 17.66-9.88 25.5-13.8 7.84-3.92 21.23-9.94 29.75-13.38 8.52-3.43 22.02-8.36 30-10.93 7.98-2.58 20.8-6.24 28.5-8.14 7.7-1.9 20.3-4.55 28-5.9 7.7-1.35 20.08-3.18 27.5-4.08 7.42-0.89 24.75-1.87 38.5-2.16 15.25-0.32 31.04-0.07 40.5 0.66 8.52 0.65 21.58 2.03 29 3.05 7.42 1.03 18.23 2.82 24 3.98 5.77 1.17 17.25 3.88 25.5 6.04 8.25 2.16 19.28 5.32 24.5 7.03 5.22 1.7 16.92 6.04 26 9.64 9.08 3.61 22.58 9.6 30 13.32 7.42 3.71 19.58 10.25 27 14.53 7.42 4.27 19.58 12.03 27 17.24 7.42 5.2 18.19 13.12 23.91 17.6 5.73 4.47 16.53 13.78 24 20.7 7.48 6.91 19.21 18.77 26.09 26.36 6.87 7.59 16.05 18.36 20.38 23.93 4.34 5.58 11.07 14.64 14.96 20.14 3.9 5.5 10.61 15.85 14.92 23 4.31 7.15 11.37 19.98 15.69 28.5 4.33 8.52 10.18 21.12 13.02 28 2.83 6.87 7.88 20.15 11.21 29.5 3.34 9.35 6.98 18.8 8.09 21 1.1 2.2 3.83 6.7 6.06 10 2.23 3.3 6.55 8.63 9.61 11.85 3.06 3.22 9.39 8.42 14.06 11.56 4.67 3.13 11.65 6.9 15.5 8.37 3.85 1.47 9.92 3.32 13.5 4.11 3.58 0.8 9.65 1.74 13.5 2.11 3.91 0.37 10.76 0.14 15.5-0.5 4.67-0.64 12.55-2.46 17.5-4.05 4.95-1.58 14.63-4.22 21.5-5.87 6.88-1.65 17.22-3.74 23-4.65 5.78-0.9 19.28-1.88 30-2.16 11.75-0.32 24.27-0.05 31.5 0.66 6.6 0.66 18.75 2.54 27 4.18 8.25 1.65 22.42 5.48 31.5 8.51 9.08 3.03 22.8 8.61 30.5 12.41 7.7 3.79 19.4 10.44 26 14.78 6.6 4.34 15.6 10.67 20 14.08 4.4 3.41 12.02 9.89 16.93 14.4 4.91 4.52 12.59 12.48 17.07 17.71 4.48 5.23 10.86 13.1 14.17 17.5 3.31 4.4 8.25 11.6 10.98 16 2.74 4.4 6.81 11.37 9.06 15.5 2.25 4.12 5.87 11.55 8.06 16.5 2.18 4.95 5.56 13.5 7.51 19 1.96 5.5 4.48 13.37 5.61 17.5 1.14 4.12 2.99 12 4.12 17.5 1.13 5.5 2.73 15.62 3.56 22.5 0.86 7.1 1.51 20.92 1.52 32 0 10.72-0.48 24.67-1.07 31-0.59 6.33-1.27 12.4-1.5 13.5-0.43 1.99 0.03 2 86.52 1.75l86.96-0.25c1.16-5.81 1.48-23.25 1.45-42.5-0.04-26.43-0.48-38.79-1.8-50.5-0.96-8.53-2.86-22.03-4.21-30-1.35-7.97-4.24-21.7-6.42-30.5-2.17-8.8-6.04-22.3-8.59-30-2.55-7.7-6.9-19.63-9.66-26.5-2.77-6.88-7.82-18.35-11.22-25.5-3.39-7.15-9.26-18.4-13.04-25-3.77-6.6-9.76-16.5-13.3-22-3.54-5.5-9.87-14.73-14.06-20.5-4.2-5.77-12.11-15.9-17.58-22.5-5.48-6.6-15.38-17.56-22.01-24.36-6.63-6.8-16.78-16.51-22.56-21.58-5.78-5.07-15.22-12.96-21-17.54-5.78-4.58-17.03-12.68-25-18-7.97-5.31-18.78-12.16-24-15.22-5.22-3.05-16.36-8.98-24.75-13.18-8.39-4.19-21.89-10.27-30-13.52-8.11-3.24-22.4-8.37-31.75-11.4-9.35-3.03-24.2-7.12-33-9.09-8.8-1.97-23.65-4.69-33-6.04-9.35-1.36-22.74-2.94-29.75-3.52-7.01-0.58-21.86-1.04-33-1.03-11.14 0.02-25.42 0.44-31.75 0.93-6.33 0.5-14.42 1.23-18 1.63l-6.5 0.72c-14.56-27.75-21.74-40.97-25.36-47.3-3.61-6.33-13.2-21.4-21.29-33.5-8.1-12.1-18.59-26.95-23.32-33-4.73-6.05-12.96-16.17-18.28-22.5-5.32-6.33-20.49-22.32-33.71-35.55-13.22-13.23-29.89-28.92-37.04-34.87-7.15-5.94-19.75-15.88-28-22.08-8.25-6.2-22.2-15.98-31-21.72-8.8-5.75-21.62-13.76-28.5-17.8-6.87-4.05-19.92-11.1-29-15.68-9.08-4.58-24.37-11.68-34-15.78-9.62-4.1-23.12-9.54-30-12.1-6.87-2.55-18.8-6.62-26.5-9.04-7.7-2.42-22.78-6.62-33.5-9.34-10.72-2.72-26.7-6.29-35.5-7.93-8.8-1.64-21.17-3.69-27.5-4.56-6.33-0.87-18.02-2.29-26-3.16-9.94-1.08-26.93-1.69-54-1.93-28.98-0.25-43.63 0.04-55 1.1z"/>
		<path id="Path 2" class="s2" d="m983.5 1053.65c-1.65 0.26-5.7 1.17-9 2.01-3.3 0.84-8.7 2.65-12 4.03-3.3 1.38-9.6 4.91-14 7.85-6.46 4.31-33.47 30.82-140 137.4l-132 132.06 122.5 122.5 111-111v220.5h173v-220.5l111 111 122.5-122.5c-198.4-198.55-259.21-258.97-263.14-262.35-3.93-3.38-9.55-7.61-12.5-9.39-2.95-1.79-8.28-4.44-11.86-5.9-3.58-1.46-8.75-3.29-11.5-4.07-2.75-0.77-10.85-1.57-18-1.76-7.15-0.2-14.35-0.15-16 0.12z"/>
	</g>
</svg>